<svg width="148" height="76" viewBox="0 0 148 76" fill="none" xmlns="http://www.w3.org/2000/svg">
<path d="M134.212 13.5958C133.77 13.0899 133.246 12.6886 132.669 12.4147C132.092 12.1409 131.474 12 130.85 12C130.225 12 129.607 12.1409 129.03 12.4147C128.453 12.6886 127.929 13.0899 127.487 13.5958L126.571 14.6453L125.655 13.5958C124.763 12.5744 123.554 12.0005 122.293 12.0005C121.032 12.0005 119.822 12.5744 118.93 13.5958C118.039 14.6172 117.538 16.0026 117.538 17.4471C117.538 18.8916 118.039 20.277 118.93 21.2984L126.571 30.0506L134.212 21.2984C134.653 20.7928 135.004 20.1924 135.243 19.5315C135.482 18.8707 135.605 18.1624 135.605 17.4471C135.605 16.7318 135.482 16.0235 135.243 15.3627C135.004 14.7019 134.653 14.1015 134.212 13.5958Z" fill="#1F4C4C" stroke="#1F4C4C" stroke-width="2" stroke-linecap="round" stroke-linejoin="round"/>
<g clip-path="url(#clip0_18_180)">
<path d="M130.138 20.1852H127.749L125.958 24.7112L122.375 15.6592L120.583 20.1852H118.194" stroke="white" stroke-width="2" stroke-linecap="round" stroke-linejoin="round"/>
</g>
<path d="M134.212 13.5958C133.77 13.0899 133.246 12.6886 132.669 12.4147C132.092 12.1409 131.474 12 130.849 12C130.225 12 129.607 12.1409 129.03 12.4147C128.453 12.6886 127.929 13.0899 127.487 13.5958L126.571 14.6453L125.655 13.5958C124.763 12.5744 123.554 12.0005 122.293 12.0005C121.031 12.0005 119.822 12.5744 118.93 13.5958C118.039 14.6172 117.538 16.0026 117.538 17.4471C117.538 18.8916 118.039 20.277 118.93 21.2984L126.571 30.0506L134.212 21.2984C134.653 20.7928 135.004 20.1924 135.243 19.5315C135.482 18.8707 135.605 18.1624 135.605 17.4471C135.605 16.7318 135.482 16.0235 135.243 15.3627C135.004 14.7019 134.653 14.1015 134.212 13.5958Z" fill="#1F4C4C" stroke="#1F4C4C" stroke-width="2" stroke-linecap="round" stroke-linejoin="round"/>
<g clip-path="url(#clip1_18_180)">
<path d="M130.138 20.1852H127.749L125.958 24.7112L122.375 15.6592L120.583 20.1852H118.194" stroke="white" stroke-width="2" stroke-linecap="round" stroke-linejoin="round"/>
</g>
<path d="M96.269 63V51.8H98.509V63H96.269ZM89.213 63V51.8H91.453V63H89.213ZM91.165 58.184V56.376H96.637V58.184H91.165ZM104.538 63.192C103.727 63.192 103.007 63.0213 102.378 62.68C101.759 62.328 101.274 61.8427 100.922 61.224C100.57 60.5947 100.394 59.8693 100.394 59.048C100.394 58.216 100.564 57.48 100.906 56.84C101.258 56.1893 101.743 55.6773 102.362 55.304C102.991 54.9307 103.722 54.744 104.554 54.744C105.354 54.744 106.052 54.92 106.65 55.272C107.258 55.624 107.727 56.0987 108.058 56.696C108.399 57.2933 108.57 57.9813 108.57 58.76C108.57 58.8667 108.564 58.984 108.554 59.112C108.554 59.24 108.543 59.3787 108.522 59.528H101.994V58.168H106.298C106.266 57.6773 106.084 57.288 105.754 57C105.434 56.7013 105.034 56.552 104.554 56.552C104.191 56.552 103.86 56.6373 103.562 56.808C103.263 56.9787 103.028 57.2293 102.858 57.56C102.687 57.8907 102.602 58.312 102.602 58.824V59.288C102.602 59.704 102.682 60.072 102.842 60.392C103.002 60.7013 103.226 60.9413 103.514 61.112C103.802 61.2827 104.138 61.368 104.522 61.368C104.906 61.368 105.22 61.288 105.466 61.128C105.722 60.968 105.914 60.76 106.042 60.504H108.33C108.18 61.0053 107.924 61.4587 107.562 61.864C107.21 62.2693 106.778 62.5947 106.266 62.84C105.754 63.0747 105.178 63.192 104.538 63.192ZM113.057 63.192C112.396 63.192 111.841 63.0853 111.393 62.872C110.956 62.648 110.631 62.3547 110.417 61.992C110.215 61.6187 110.113 61.208 110.113 60.76C110.113 60.28 110.236 59.8533 110.481 59.48C110.727 59.1067 111.105 58.8133 111.617 58.6C112.129 58.3867 112.769 58.28 113.537 58.28H115.521C115.521 57.896 115.468 57.5813 115.361 57.336C115.265 57.08 115.105 56.888 114.881 56.76C114.668 56.632 114.38 56.568 114.017 56.568C113.623 56.568 113.287 56.6533 113.009 56.824C112.743 56.9947 112.577 57.2507 112.513 57.592H110.337C110.401 57.016 110.593 56.52 110.913 56.104C111.233 55.6773 111.66 55.3467 112.193 55.112C112.737 54.8667 113.351 54.744 114.033 54.744C114.791 54.744 115.447 54.872 116.001 55.128C116.567 55.384 116.999 55.752 117.297 56.232C117.607 56.712 117.761 57.304 117.761 58.008V63H115.873L115.617 61.784C115.511 61.9973 115.372 62.1893 115.201 62.36C115.041 62.5307 114.855 62.68 114.641 62.808C114.428 62.9253 114.188 63.016 113.921 63.08C113.665 63.1547 113.377 63.192 113.057 63.192ZM113.601 61.464C113.868 61.464 114.108 61.4213 114.321 61.336C114.535 61.24 114.716 61.1067 114.865 60.936C115.015 60.7653 115.137 60.5733 115.233 60.36C115.329 60.136 115.393 59.896 115.425 59.64V59.624H113.809C113.5 59.624 113.244 59.6667 113.041 59.752C112.849 59.8267 112.705 59.9387 112.609 60.088C112.513 60.2267 112.465 60.3867 112.465 60.568C112.465 60.76 112.513 60.9253 112.609 61.064C112.705 61.2027 112.839 61.304 113.009 61.368C113.18 61.432 113.377 61.464 113.601 61.464ZM119.775 63V51.48H122.015V63H119.775ZM127.799 63C127.223 63 126.716 62.9093 126.279 62.728C125.852 62.5467 125.521 62.248 125.287 61.832C125.052 61.416 124.935 60.8507 124.935 60.136V56.808H123.543V54.936H124.935L125.174 52.712H127.174V54.936H129.271V56.808H127.174V60.152C127.174 60.504 127.249 60.7493 127.399 60.888C127.559 61.0267 127.825 61.096 128.199 61.096H129.255V63H127.799ZM131.103 63V51.48H133.343V56.12C133.599 55.704 133.946 55.3733 134.383 55.128C134.831 54.872 135.348 54.744 135.935 54.744C136.607 54.744 137.172 54.888 137.631 55.176C138.09 55.4533 138.436 55.864 138.671 56.408C138.916 56.9413 139.039 57.6027 139.039 58.392V63H136.815V58.6C136.815 57.9707 136.682 57.4853 136.415 57.144C136.148 56.8027 135.738 56.632 135.183 56.632C134.831 56.632 134.511 56.7173 134.223 56.888C133.946 57.0587 133.727 57.2987 133.567 57.608C133.418 57.9173 133.343 58.2907 133.343 58.728V63H131.103Z" fill="#1F4C4C"/>
<path d="M42.014 12.007C42.014 12.9735 42.7975 13.757 43.764 13.757C44.7305 13.757 45.514 12.9735 45.514 12.007C45.514 11.0405 44.7305 10.257 43.764 10.257C42.7975 10.257 42.014 11.0405 42.014 12.007Z" fill="#008F91"/>
<path d="M51.2815 6.89438C51.2815 7.99895 52.1769 8.89438 53.2815 8.89438C54.3861 8.89438 55.2815 7.99895 55.2815 6.89438C55.2815 5.78981 54.3861 4.89438 53.2815 4.89438C52.1769 4.89438 51.2815 5.78981 51.2815 6.89438Z" fill="#008F91"/>
<path d="M72 5.65C72 7.11355 73.1864 8.3 74.65 8.3C76.1135 8.3 77.3 7.11355 77.3 5.65C77.3 4.18645 76.1135 3 74.65 3C73.1864 3 72 4.18645 72 5.65Z" fill="#008F91"/>
<path d="M70.0288 16.415C70.2581 18.056 71.7741 19.2004 73.415 18.9711C75.056 18.7419 76.2004 17.2259 75.9711 15.585C75.7419 13.944 74.2259 12.7996 72.5849 13.0288C70.944 13.2581 69.7996 14.7741 70.0288 16.415Z" fill="#1F4C4C"/>
<path d="M78 22.05C78 24.2868 79.8132 26.1 82.05 26.1C84.2867 26.1 86.1 24.2868 86.1 22.05C86.1 19.8132 84.2867 18 82.05 18C79.8132 18 78 19.8132 78 22.05Z" fill="#1F4C4C"/>
<path d="M90 18.6496C90 21.2175 92.0817 23.2992 94.6496 23.2992C97.2176 23.2992 99.2993 21.2175 99.2993 18.6496C99.2993 16.0817 97.2176 14 94.6496 14C92.0817 14 90 16.0817 90 18.6496Z" fill="#008F91"/>
<path d="M86 30C86 32.7614 88.2386 35 91 35C93.7614 35 96 32.7614 96 30C96 27.2386 93.7614 25 91 25C88.2386 25 86 27.2386 86 30Z" fill="#1F4C4C"/>
<path d="M99 27.2C99 30.0719 101.328 32.4 104.2 32.4C107.072 32.4 109.4 30.0719 109.4 27.2C109.4 24.3281 107.072 22 104.2 22C101.328 22 99 24.3281 99 27.2Z" fill="#008F91"/>
<path d="M95 39.5C95 42.5376 97.4624 45 100.5 45C103.538 45 106 42.5376 106 39.5C106 36.4624 103.538 34 100.5 34C97.4624 34 95 36.4624 95 39.5Z" fill="#1F4C4C"/>
<path d="M110 35.15C110 38.5466 112.753 41.3 116.15 41.3C119.547 41.3 122.3 38.5466 122.3 35.15C122.3 31.7534 119.547 29 116.15 29C112.753 29 110 31.7534 110 35.15Z" fill="#008F91"/>
<path d="M122 44C122 47.3137 124.686 50 128 50C131.314 50 134 47.3137 134 44C134 40.6863 131.314 38 128 38C124.686 38 122 40.6863 122 44Z" fill="#008F91"/>
<path d="M131 32.8943C131 35.5974 133.191 37.7887 135.894 37.7887C138.597 37.7887 140.789 35.5974 140.789 32.8943C140.789 30.1913 138.597 28 135.894 28C133.191 28 131 30.1913 131 32.8943Z" fill="#008F91"/>
<path d="M139.789 24C139.789 26.2091 141.58 28 143.789 28C145.998 28 147.789 26.2091 147.789 24C147.789 21.7909 145.998 20 143.789 20C141.58 20 139.789 21.7909 139.789 24Z" fill="#008F91"/>
<path d="M81.063 11.0703C81.063 13.1414 82.7419 14.8203 84.813 14.8203C86.8841 14.8203 88.563 13.1414 88.563 11.0703C88.563 8.99928 86.8841 7.32034 84.813 7.32034C82.7419 7.32034 81.063 8.99928 81.063 11.0703Z" fill="#008F91"/>
<path d="M32.7676 27.4822C32.7676 28.3106 33.4392 28.9822 34.2676 28.9822C35.0961 28.9822 35.7676 28.3106 35.7676 27.4822C35.7676 26.6538 35.0961 25.9822 34.2676 25.9822C33.4392 25.9822 32.7676 26.6538 32.7676 27.4822Z" fill="#1F4C4C"/>
<path d="M39.8049 20.8C39.8049 21.7941 40.6108 22.6 41.6049 22.6C42.599 22.6 43.4049 21.7941 43.4049 20.8C43.4049 19.8059 42.599 19 41.6049 19C40.6108 19 39.8049 19.8059 39.8049 20.8Z" fill="#1F4C4C"/>
<path d="M62 2.25C62 3.49264 63.0074 4.5 64.25 4.5C65.4926 4.5 66.5 3.49264 66.5 2.25C66.5 1.00736 65.4926 0 64.25 0C63.0074 0 62 1.00736 62 2.25Z" fill="#008F91"/>
<path d="M50.5 14.9C50.5 15.9493 51.3506 16.8 52.4 16.8C53.4493 16.8 54.3 15.9493 54.3 14.9C54.3 13.8507 53.4493 13 52.4 13C51.3506 13 50.5 13.8507 50.5 14.9Z" fill="#1F4C4C"/>
<path d="M61 12.3C61 13.5703 62.0297 14.6 63.3 14.6C64.5702 14.6 65.6 13.5703 65.6 12.3C65.6 11.0297 64.5702 10 63.3 10C62.0297 10 61 11.0297 61 12.3Z" fill="#1F4C4C"/>
<path d="M107 47.5C107 49.9853 109.015 52 111.5 52C113.985 52 116 49.9853 116 47.5C116 45.0147 113.985 43 111.5 43C109.015 43 107 45.0147 107 47.5Z" fill="#1F4C4C"/>
<path d="M2.14812 63L10.9881 48.8L2.02813 35H8.26813L14.4281 44.56L20.0681 35H26.1481L17.3881 49.04L26.3881 63H20.1481L13.9481 53.28L8.26813 63H2.14812ZM30.265 63V34.2H35.665V63H30.265ZM48.4491 63.48C46.8224 63.48 45.4224 63.1467 44.2491 62.48C43.1024 61.7867 42.2224 60.7867 41.6091 59.48C40.9957 58.1467 40.6891 56.5067 40.6891 54.56V42.84H46.0891V54C46.0891 55.6267 46.4224 56.8533 47.0891 57.68C47.7824 58.5067 48.8357 58.92 50.2491 58.92C51.1557 58.92 51.9557 58.72 52.6491 58.32C53.3424 57.8933 53.8891 57.2933 54.2891 56.52C54.7157 55.72 54.9291 54.7467 54.9291 53.6V42.84H60.2891V63H55.5691L55.1291 59.72C54.5424 60.8667 53.6757 61.7867 52.5291 62.48C51.3824 63.1467 50.0224 63.48 48.4491 63.48ZM75.2575 63.48C73.2308 63.48 71.4308 63.0533 69.8575 62.2C68.3108 61.32 67.0975 60.1067 66.2175 58.56C65.3642 56.9867 64.9375 55.1733 64.9375 53.12C64.9375 51.0133 65.3642 49.16 66.2175 47.56C67.0975 45.9333 68.3108 44.6667 69.8575 43.76C71.4042 42.8267 73.2042 42.36 75.2575 42.36C77.2575 42.36 79.0042 42.8 80.4975 43.68C81.9908 44.56 83.1508 45.7467 83.9775 47.24C84.8042 48.7333 85.2175 50.4267 85.2175 52.32C85.2175 52.5867 85.2175 52.8933 85.2175 53.24C85.2175 53.56 85.1908 53.8933 85.1375 54.24H68.7775V50.96H79.7775C79.6975 49.6533 79.2308 48.6267 78.3775 47.88C77.5508 47.1333 76.5108 46.76 75.2575 46.76C74.3508 46.76 73.5108 46.9733 72.7375 47.4C71.9642 47.8 71.3508 48.4267 70.8975 49.28C70.4708 50.1333 70.2575 51.2133 70.2575 52.52V53.68C70.2575 54.7733 70.4575 55.7333 70.8575 56.56C71.2842 57.36 71.8708 57.9867 72.6175 58.44C73.3642 58.8667 74.2308 59.08 75.2175 59.08C76.2042 59.08 77.0175 58.8667 77.6575 58.44C78.3242 58.0133 78.8175 57.4667 79.1375 56.8H84.6575C84.2842 58.0533 83.6575 59.1867 82.7775 60.2C81.8975 61.2133 80.8175 62.0133 79.5375 62.6C78.2575 63.1867 76.8308 63.48 75.2575 63.48Z" fill="url(#paint0_linear_18_180)"/>
<defs>
<linearGradient id="paint0_linear_18_180" x1="125.481" y1="75" x2="-26.7692" y2="75" gradientUnits="userSpaceOnUse">
<stop stop-color="#008F91" stop-opacity="0.7"/>
<stop offset="0.692308" stop-color="#1F4C4C"/>
</linearGradient>
<clipPath id="clip0_18_180">
<rect width="14.3323" height="12.0693" fill="white" transform="translate(117 14.1506)"/>
</clipPath>
<clipPath id="clip1_18_180">
<rect width="14.3323" height="12.0693" fill="white" transform="translate(117 14.1506)"/>
</clipPath>
</defs>
</svg>
