<svg width="116" height="54" viewBox="0 0 116 54" fill="none" xmlns="http://www.w3.org/2000/svg">
<path d="M9.24634 12.007C9.24634 12.9735 10.0298 13.757 10.9963 13.757C11.9628 13.757 12.7463 12.9735 12.7463 12.007C12.7463 11.0405 11.9628 10.257 10.9963 10.257C10.0298 10.257 9.24634 11.0405 9.24634 12.007Z" fill="#008F91"/>
<path d="M18.5139 6.89438C18.5139 7.99895 19.4093 8.89438 20.5139 8.89438C21.6184 8.89438 22.5139 7.99895 22.5139 6.89438C22.5139 5.78981 21.6184 4.89438 20.5139 4.89438C19.4093 4.89438 18.5139 5.78981 18.5139 6.89438Z" fill="#008F91"/>
<path d="M39.2323 5.65C39.2323 7.11355 40.4188 8.3 41.8823 8.3C43.3459 8.3 44.5323 7.11355 44.5323 5.65C44.5323 4.18645 43.3459 3 41.8823 3C40.4188 3 39.2323 4.18645 39.2323 5.65Z" fill="#008F91"/>
<path d="M37.2612 16.415C37.4904 18.056 39.0065 19.2004 40.6474 18.9711C42.2883 18.7419 43.4327 17.2259 43.2035 15.585C42.9743 13.944 41.4582 12.7996 39.8173 13.0288C38.1764 13.2581 37.032 14.7741 37.2612 16.415Z" fill="#1F4C4C"/>
<path d="M45.2323 22.05C45.2323 24.2868 47.0456 26.1 49.2823 26.1C51.5191 26.1 53.3323 24.2868 53.3323 22.05C53.3323 19.8132 51.5191 18 49.2823 18C47.0456 18 45.2323 19.8132 45.2323 22.05Z" fill="#1F4C4C"/>
<path d="M57.2324 18.6496C57.2324 21.2175 59.3141 23.2992 61.882 23.2992C64.4499 23.2992 66.5316 21.2175 66.5316 18.6496C66.5316 16.0817 64.4499 14 61.882 14C59.3141 14 57.2324 16.0817 57.2324 18.6496Z" fill="#008F91"/>
<path d="M53.2324 30C53.2324 32.7614 55.4709 35 58.2324 35C60.9938 35 63.2324 32.7614 63.2324 30C63.2324 27.2386 60.9938 25 58.2324 25C55.4709 25 53.2324 27.2386 53.2324 30Z" fill="#1F4C4C"/>
<path d="M66.2324 27.2C66.2324 30.0719 68.5605 32.4 71.4324 32.4C74.3043 32.4 76.6324 30.0719 76.6324 27.2C76.6324 24.3281 74.3043 22 71.4324 22C68.5605 22 66.2324 24.3281 66.2324 27.2Z" fill="#008F91"/>
<path d="M62.2324 39.5C62.2324 42.5376 64.6948 45 67.7324 45C70.7699 45 73.2324 42.5376 73.2324 39.5C73.2324 36.4624 70.7699 34 67.7324 34C64.6948 34 62.2324 36.4624 62.2324 39.5Z" fill="#1F4C4C"/>
<path d="M77.2323 35.15C77.2323 38.5466 79.9858 41.3 83.3823 41.3C86.7789 41.3 89.5323 38.5466 89.5323 35.15C89.5323 31.7534 86.7789 29 83.3823 29C79.9858 29 77.2323 31.7534 77.2323 35.15Z" fill="#008F91"/>
<path d="M89.2324 44C89.2324 47.3137 91.9187 50 95.2324 50C98.5461 50 101.232 47.3137 101.232 44C101.232 40.6863 98.5461 38 95.2324 38C91.9187 38 89.2324 40.6863 89.2324 44Z" fill="#008F91"/>
<path d="M98.2324 32.8943C98.2324 35.5974 100.424 37.7887 103.127 37.7887C105.83 37.7887 108.021 35.5974 108.021 32.8943C108.021 30.1913 105.83 28 103.127 28C100.424 28 98.2324 30.1913 98.2324 32.8943Z" fill="#008F91"/>
<path d="M107.021 24C107.021 26.2091 108.812 28 111.021 28C113.23 28 115.021 26.2091 115.021 24C115.021 21.7909 113.23 20 111.021 20C108.812 20 107.021 21.7909 107.021 24Z" fill="#008F91"/>
<path d="M85.2324 51.5C85.2324 52.8807 86.3516 54 87.7324 54C89.1131 54 90.2324 52.8807 90.2324 51.5C90.2324 50.1193 89.1131 49 87.7324 49C86.3516 49 85.2324 50.1193 85.2324 51.5Z" fill="#008F91"/>
<path d="M48.2953 11.0703C48.2953 13.1414 49.9743 14.8203 52.0453 14.8203C54.1164 14.8203 55.7953 13.1414 55.7953 11.0703C55.7953 8.99928 54.1164 7.32034 52.0453 7.32034C49.9743 7.32034 48.2953 8.99928 48.2953 11.0703Z" fill="#008F91"/>
<path d="M-1.44807e-07 27.4822C-1.44807e-07 28.3106 0.671573 28.9822 1.5 28.9822C2.32843 28.9822 3 28.3106 3 27.4822C3 26.6538 2.32843 25.9822 1.5 25.9822C0.671573 25.9822 -1.44807e-07 26.6538 -1.44807e-07 27.4822Z" fill="#1F4C4C"/>
<path d="M7.03727 20.8C7.03727 21.7941 7.84316 22.6 8.83727 22.6C9.83138 22.6 10.6373 21.7941 10.6373 20.8C10.6373 19.8059 9.83138 19 8.83727 19C7.84316 19 7.03727 19.8059 7.03727 20.8Z" fill="#1F4C4C"/>
<path d="M29.2324 2.25C29.2324 3.49264 30.2397 4.5 31.4824 4.5C32.725 4.5 33.7324 3.49264 33.7324 2.25C33.7324 1.00736 32.725 0 31.4824 0C30.2397 0 29.2324 1.00736 29.2324 2.25Z" fill="#008F91"/>
<path d="M17.7323 14.9C17.7323 15.9493 18.583 16.8 19.6323 16.8C20.6817 16.8 21.5323 15.9493 21.5323 14.9C21.5323 13.8507 20.6817 13 19.6323 13C18.583 13 17.7323 13.8507 17.7323 14.9Z" fill="#1F4C4C"/>
<path d="M28.2323 12.3C28.2323 13.5703 29.2621 14.6 30.5323 14.6C31.8026 14.6 32.8323 13.5703 32.8323 12.3C32.8323 11.0297 31.8026 10 30.5323 10C29.2621 10 28.2323 11.0297 28.2323 12.3Z" fill="#1F4C4C"/>
<path d="M74.2324 47.5C74.2324 49.9853 76.2471 52 78.7324 52C81.2176 52 83.2324 49.9853 83.2324 47.5C83.2324 45.0147 81.2176 43 78.7324 43C76.2471 43 74.2324 45.0147 74.2324 47.5Z" fill="#1F4C4C"/>
</svg>
