<svg width="148" height="75" viewBox="0 0 148 75" fill="none" xmlns="http://www.w3.org/2000/svg">
<path d="M42.014 12.007C42.014 12.9735 42.7975 13.757 43.764 13.757C44.7305 13.757 45.514 12.9735 45.514 12.007C45.514 11.0405 44.7305 10.257 43.764 10.257C42.7975 10.257 42.014 11.0405 42.014 12.007Z" fill="#008F91"/>
<path d="M51.2815 6.89438C51.2815 7.99895 52.1769 8.89438 53.2815 8.89438C54.3861 8.89438 55.2815 7.99895 55.2815 6.89438C55.2815 5.78981 54.3861 4.89438 53.2815 4.89438C52.1769 4.89438 51.2815 5.78981 51.2815 6.89438Z" fill="#008F91"/>
<path d="M72 5.65C72 7.11355 73.1864 8.3 74.65 8.3C76.1135 8.3 77.3 7.11355 77.3 5.65C77.3 4.18645 76.1135 3 74.65 3C73.1864 3 72 4.18645 72 5.65Z" fill="#008F91"/>
<path d="M70.0288 16.415C70.2581 18.056 71.7741 19.2004 73.415 18.9711C75.056 18.7419 76.2004 17.2259 75.9711 15.585C75.7419 13.944 74.2259 12.7996 72.5849 13.0288C70.944 13.2581 69.7996 14.7741 70.0288 16.415Z" fill="#1F4C4C"/>
<path d="M78 22.05C78 24.2868 79.8132 26.1 82.05 26.1C84.2867 26.1 86.1 24.2868 86.1 22.05C86.1 19.8132 84.2867 18 82.05 18C79.8132 18 78 19.8132 78 22.05Z" fill="#1F4C4C"/>
<path d="M90 18.6496C90 21.2175 92.0817 23.2992 94.6496 23.2992C97.2176 23.2992 99.2993 21.2175 99.2993 18.6496C99.2993 16.0817 97.2176 14 94.6496 14C92.0817 14 90 16.0817 90 18.6496Z" fill="#008F91"/>
<path d="M86 30C86 32.7614 88.2386 35 91 35C93.7614 35 96 32.7614 96 30C96 27.2386 93.7614 25 91 25C88.2386 25 86 27.2386 86 30Z" fill="#1F4C4C"/>
<path d="M99 27.2C99 30.0719 101.328 32.4 104.2 32.4C107.072 32.4 109.4 30.0719 109.4 27.2C109.4 24.3281 107.072 22 104.2 22C101.328 22 99 24.3281 99 27.2Z" fill="#008F91"/>
<path d="M95 39.5C95 42.5376 97.4624 45 100.5 45C103.538 45 106 42.5376 106 39.5C106 36.4624 103.538 34 100.5 34C97.4624 34 95 36.4624 95 39.5Z" fill="#1F4C4C"/>
<path d="M110 35.15C110 38.5466 112.753 41.3 116.15 41.3C119.547 41.3 122.3 38.5466 122.3 35.15C122.3 31.7534 119.547 29 116.15 29C112.753 29 110 31.7534 110 35.15Z" fill="#008F91"/>
<path d="M122 44C122 47.3137 124.686 50 128 50C131.314 50 134 47.3137 134 44C134 40.6863 131.314 38 128 38C124.686 38 122 40.6863 122 44Z" fill="#008F91"/>
<path d="M131 32.8943C131 35.5974 133.191 37.7887 135.894 37.7887C138.597 37.7887 140.789 35.5974 140.789 32.8943C140.789 30.1913 138.597 28 135.894 28C133.191 28 131 30.1913 131 32.8943Z" fill="#008F91"/>
<path d="M139.789 24C139.789 26.2091 141.58 28 143.789 28C145.998 28 147.789 26.2091 147.789 24C147.789 21.7909 145.998 20 143.789 20C141.58 20 139.789 21.7909 139.789 24Z" fill="#008F91"/>
<path d="M118 51.5C118 52.8807 119.119 54 120.5 54C121.881 54 123 52.8807 123 51.5C123 50.1193 121.881 49 120.5 49C119.119 49 118 50.1193 118 51.5Z" fill="#008F91"/>
<path d="M81.063 11.0703C81.063 13.1414 82.7419 14.8203 84.813 14.8203C86.8841 14.8203 88.563 13.1414 88.563 11.0703C88.563 8.99928 86.8841 7.32034 84.813 7.32034C82.7419 7.32034 81.063 8.99928 81.063 11.0703Z" fill="#008F91"/>
<path d="M32.7676 27.4822C32.7676 28.3106 33.4392 28.9822 34.2676 28.9822C35.0961 28.9822 35.7676 28.3106 35.7676 27.4822C35.7676 26.6538 35.0961 25.9822 34.2676 25.9822C33.4392 25.9822 32.7676 26.6538 32.7676 27.4822Z" fill="#1F4C4C"/>
<path d="M39.8049 20.8C39.8049 21.7941 40.6108 22.6 41.6049 22.6C42.599 22.6 43.4049 21.7941 43.4049 20.8C43.4049 19.8059 42.599 19 41.6049 19C40.6108 19 39.8049 19.8059 39.8049 20.8Z" fill="#1F4C4C"/>
<path d="M62 2.25C62 3.49264 63.0074 4.5 64.25 4.5C65.4926 4.5 66.5 3.49264 66.5 2.25C66.5 1.00736 65.4926 0 64.25 0C63.0074 0 62 1.00736 62 2.25Z" fill="#008F91"/>
<path d="M50.5 14.9C50.5 15.9493 51.3506 16.8 52.4 16.8C53.4493 16.8 54.3 15.9493 54.3 14.9C54.3 13.8507 53.4493 13 52.4 13C51.3506 13 50.5 13.8507 50.5 14.9Z" fill="#1F4C4C"/>
<path d="M61 12.3C61 13.5703 62.0297 14.6 63.3 14.6C64.5702 14.6 65.6 13.5703 65.6 12.3C65.6 11.0297 64.5702 10 63.3 10C62.0297 10 61 11.0297 61 12.3Z" fill="#1F4C4C"/>
<path d="M107 47.5C107 49.9853 109.015 52 111.5 52C113.985 52 116 49.9853 116 47.5C116 45.0147 113.985 43 111.5 43C109.015 43 107 45.0147 107 47.5Z" fill="#1F4C4C"/>
<path d="M2.14812 63L10.9881 48.8L2.02813 35H8.26813L14.4281 44.56L20.0681 35H26.1481L17.3881 49.04L26.3881 63H20.1481L13.9481 53.28L8.26813 63H2.14812ZM30.265 63V34.2H35.665V63H30.265ZM48.4491 63.48C46.8224 63.48 45.4224 63.1467 44.2491 62.48C43.1024 61.7867 42.2224 60.7867 41.6091 59.48C40.9957 58.1467 40.6891 56.5067 40.6891 54.56V42.84H46.0891V54C46.0891 55.6267 46.4224 56.8533 47.0891 57.68C47.7824 58.5067 48.8357 58.92 50.2491 58.92C51.1557 58.92 51.9557 58.72 52.6491 58.32C53.3424 57.8933 53.8891 57.2933 54.2891 56.52C54.7157 55.72 54.9291 54.7467 54.9291 53.6V42.84H60.2891V63H55.5691L55.1291 59.72C54.5424 60.8667 53.6757 61.7867 52.5291 62.48C51.3824 63.1467 50.0224 63.48 48.4491 63.48ZM75.2575 63.48C73.2308 63.48 71.4308 63.0533 69.8575 62.2C68.3108 61.32 67.0975 60.1067 66.2175 58.56C65.3642 56.9867 64.9375 55.1733 64.9375 53.12C64.9375 51.0133 65.3642 49.16 66.2175 47.56C67.0975 45.9333 68.3108 44.6667 69.8575 43.76C71.4042 42.8267 73.2042 42.36 75.2575 42.36C77.2575 42.36 79.0042 42.8 80.4975 43.68C81.9908 44.56 83.1508 45.7467 83.9775 47.24C84.8042 48.7333 85.2175 50.4267 85.2175 52.32C85.2175 52.5867 85.2175 52.8933 85.2175 53.24C85.2175 53.56 85.1908 53.8933 85.1375 54.24H68.7775V50.96H79.7775C79.6975 49.6533 79.2308 48.6267 78.3775 47.88C77.5508 47.1333 76.5108 46.76 75.2575 46.76C74.3508 46.76 73.5108 46.9733 72.7375 47.4C71.9642 47.8 71.3508 48.4267 70.8975 49.28C70.4708 50.1333 70.2575 51.2133 70.2575 52.52V53.68C70.2575 54.7733 70.4575 55.7333 70.8575 56.56C71.2842 57.36 71.8708 57.9867 72.6175 58.44C73.3642 58.8667 74.2308 59.08 75.2175 59.08C76.2042 59.08 77.0175 58.8667 77.6575 58.44C78.3242 58.0133 78.8175 57.4667 79.1375 56.8H84.6575C84.2842 58.0533 83.6575 59.1867 82.7775 60.2C81.8975 61.2133 80.8175 62.0133 79.5375 62.6C78.2575 63.1867 76.8308 63.48 75.2575 63.48Z" fill="url(#paint0_linear_18_179)"/>
<defs>
<linearGradient id="paint0_linear_18_179" x1="125.481" y1="75" x2="-26.7692" y2="75" gradientUnits="userSpaceOnUse">
<stop stop-color="#008F91" stop-opacity="0.7"/>
<stop offset="0.692308" stop-color="#1F4C4C"/>
</linearGradient>
</defs>
</svg>
