<svg width="134" height="48" viewBox="0 0 134 48" fill="none" xmlns="http://www.w3.org/2000/svg">
<path d="M0.237 47L14.381 24.28L0.0450001 2.2H10.029L19.885 17.496L28.909 2.2H38.637L24.621 24.664L39.021 47H29.037L19.117 31.448L10.029 47H0.237ZM45.224 47V0.919998H53.864V47H45.224ZM74.3185 47.768C71.7158 47.768 69.4758 47.2347 67.5985 46.168C65.7638 45.0587 64.3558 43.4587 63.3745 41.368C62.3932 39.2347 61.9025 36.6107 61.9025 33.496V14.744H70.5425V32.6C70.5425 35.2027 71.0758 37.1653 72.1425 38.488C73.2518 39.8107 74.9372 40.472 77.1985 40.472C78.6492 40.472 79.9292 40.152 81.0385 39.512C82.1478 38.8293 83.0225 37.8693 83.6625 36.632C84.3452 35.352 84.6865 33.7947 84.6865 31.96V14.744H93.2625V47H85.7105L85.0065 41.752C84.0678 43.5867 82.6812 45.0587 80.8465 46.168C79.0118 47.2347 76.8358 47.768 74.3185 47.768ZM117.212 47.768C113.969 47.768 111.089 47.0853 108.572 45.72C106.097 44.312 104.156 42.3707 102.748 39.896C101.383 37.3787 100.7 34.4773 100.7 31.192C100.7 27.8213 101.383 24.856 102.748 22.296C104.156 19.6933 106.097 17.6667 108.572 16.216C111.047 14.7227 113.927 13.976 117.212 13.976C120.412 13.976 123.207 14.68 125.596 16.088C127.985 17.496 129.841 19.3947 131.164 21.784C132.487 24.1733 133.148 26.8827 133.148 29.912C133.148 30.3387 133.148 30.8293 133.148 31.384C133.148 31.896 133.105 32.4293 133.02 32.984H106.844V27.736H124.444C124.316 25.6453 123.569 24.0027 122.204 22.808C120.881 21.6133 119.217 21.016 117.212 21.016C115.761 21.016 114.417 21.3573 113.18 22.04C111.943 22.68 110.961 23.6827 110.236 25.048C109.553 26.4133 109.212 28.1413 109.212 30.232V32.088C109.212 33.8373 109.532 35.3733 110.172 36.696C110.855 37.976 111.793 38.9787 112.988 39.704C114.183 40.3867 115.569 40.728 117.148 40.728C118.727 40.728 120.028 40.3867 121.052 39.704C122.119 39.0213 122.908 38.1467 123.42 37.08H132.252C131.655 39.0853 130.652 40.8987 129.244 42.52C127.836 44.1413 126.108 45.4213 124.06 46.36C122.012 47.2987 119.729 47.768 117.212 47.768Z" fill="url(#paint0_linear_23_209)"/>
<defs>
<linearGradient id="paint0_linear_23_209" x1="197.038" y1="67" x2="-44.4615" y2="67" gradientUnits="userSpaceOnUse">
<stop stop-color="#008F91" stop-opacity="0.7"/>
<stop offset="0.692308" stop-color="#1F4C4C"/>
</linearGradient>
</defs>
</svg>
